<mxfile host="app.diagrams.net" modified="2024-01-12T03:45:30.745Z" agent="Mozilla/5.0 (Windows NT 10.0; Win64; x64) AppleWebKit/537.36 (KHTML, like Gecko) Chrome/120.0.0.0 Safari/537.36" etag="5v6eTZbp--S1v-Eny-ej" version="22.1.16" type="github">
  <diagram id="C5RBs43oDa-KdzZeNtuy" name="Page-1">
    <mxGraphModel dx="1793" dy="983" grid="1" gridSize="10" guides="1" tooltips="1" connect="1" arrows="1" fold="1" page="1" pageScale="1" pageWidth="827" pageHeight="1169" math="0" shadow="0">
      <root>
        <mxCell id="WIyWlLk6GJQsqaUBKTNV-0" />
        <mxCell id="WIyWlLk6GJQsqaUBKTNV-1" parent="WIyWlLk6GJQsqaUBKTNV-0" />
        <mxCell id="nEFb0NRuYZ_jhTo4WBhV-102" value="" style="rounded=0;whiteSpace=wrap;html=1;fillColor=#f9f7ed;strokeColor=#36393d;" vertex="1" parent="WIyWlLk6GJQsqaUBKTNV-1">
          <mxGeometry x="1705" y="60" width="1595" height="1290" as="geometry" />
        </mxCell>
        <mxCell id="nEFb0NRuYZ_jhTo4WBhV-98" style="edgeStyle=orthogonalEdgeStyle;rounded=0;orthogonalLoop=1;jettySize=auto;html=1;entryX=0.464;entryY=1.004;entryDx=0;entryDy=0;entryPerimeter=0;" edge="1" parent="WIyWlLk6GJQsqaUBKTNV-1" source="nEFb0NRuYZ_jhTo4WBhV-97" target="nEFb0NRuYZ_jhTo4WBhV-99">
          <mxGeometry relative="1" as="geometry">
            <Array as="points">
              <mxPoint x="2530" y="906" />
              <mxPoint x="2530" y="470" />
              <mxPoint x="2335" y="470" />
            </Array>
          </mxGeometry>
        </mxCell>
        <mxCell id="nEFb0NRuYZ_jhTo4WBhV-97" value="" style="rounded=0;whiteSpace=wrap;html=1;" vertex="1" parent="WIyWlLk6GJQsqaUBKTNV-1">
          <mxGeometry x="1760" y="513" width="680" height="787" as="geometry" />
        </mxCell>
        <mxCell id="Iln7zaR0tb7gjahA7qLT-72" style="edgeStyle=orthogonalEdgeStyle;rounded=0;orthogonalLoop=1;jettySize=auto;html=1;entryX=0;entryY=0.5;entryDx=0;entryDy=0;" parent="WIyWlLk6GJQsqaUBKTNV-1" source="Iln7zaR0tb7gjahA7qLT-71" target="WIyWlLk6GJQsqaUBKTNV-11" edge="1">
          <mxGeometry relative="1" as="geometry">
            <Array as="points">
              <mxPoint x="400" y="1260" />
              <mxPoint x="40" y="1260" />
              <mxPoint x="40" y="420" />
            </Array>
          </mxGeometry>
        </mxCell>
        <mxCell id="Iln7zaR0tb7gjahA7qLT-73" value="Loop next email" style="edgeLabel;html=1;align=center;verticalAlign=middle;resizable=0;points=[];" parent="Iln7zaR0tb7gjahA7qLT-72" vertex="1" connectable="0">
          <mxGeometry x="-0.6659" y="1" relative="1" as="geometry">
            <mxPoint as="offset" />
          </mxGeometry>
        </mxCell>
        <mxCell id="Iln7zaR0tb7gjahA7qLT-71" value="" style="rounded=0;whiteSpace=wrap;html=1;fillColor=#f5f5f5;fontColor=#333333;strokeColor=#666666;" parent="WIyWlLk6GJQsqaUBKTNV-1" vertex="1">
          <mxGeometry x="110" y="520.5" width="580" height="625" as="geometry" />
        </mxCell>
        <mxCell id="WIyWlLk6GJQsqaUBKTNV-2" value="" style="rounded=0;html=1;jettySize=auto;orthogonalLoop=1;fontSize=11;endArrow=block;endFill=0;endSize=8;strokeWidth=1;shadow=0;labelBackgroundColor=none;edgeStyle=orthogonalEdgeStyle;" parent="WIyWlLk6GJQsqaUBKTNV-1" source="WIyWlLk6GJQsqaUBKTNV-3" target="WIyWlLk6GJQsqaUBKTNV-6" edge="1">
          <mxGeometry relative="1" as="geometry" />
        </mxCell>
        <mxCell id="WIyWlLk6GJQsqaUBKTNV-3" value="open outlook" style="rounded=1;whiteSpace=wrap;html=1;fontSize=12;glass=0;strokeWidth=1;shadow=0;" parent="WIyWlLk6GJQsqaUBKTNV-1" vertex="1">
          <mxGeometry x="160" y="80" width="120" height="40" as="geometry" />
        </mxCell>
        <mxCell id="WIyWlLk6GJQsqaUBKTNV-4" value="Yes" style="rounded=0;html=1;jettySize=auto;orthogonalLoop=1;fontSize=11;endArrow=block;endFill=0;endSize=8;strokeWidth=1;shadow=0;labelBackgroundColor=none;edgeStyle=orthogonalEdgeStyle;entryX=0.5;entryY=0;entryDx=0;entryDy=0;exitX=0.5;exitY=1;exitDx=0;exitDy=0;" parent="WIyWlLk6GJQsqaUBKTNV-1" source="WIyWlLk6GJQsqaUBKTNV-6" target="WIyWlLk6GJQsqaUBKTNV-11" edge="1">
          <mxGeometry x="-0.3333" y="20" relative="1" as="geometry">
            <mxPoint as="offset" />
            <mxPoint x="220" y="290" as="targetPoint" />
          </mxGeometry>
        </mxCell>
        <mxCell id="WIyWlLk6GJQsqaUBKTNV-5" value="No" style="edgeStyle=orthogonalEdgeStyle;rounded=0;html=1;jettySize=auto;orthogonalLoop=1;fontSize=11;endArrow=block;endFill=0;endSize=8;strokeWidth=1;shadow=0;labelBackgroundColor=none;" parent="WIyWlLk6GJQsqaUBKTNV-1" source="WIyWlLk6GJQsqaUBKTNV-6" target="WIyWlLk6GJQsqaUBKTNV-7" edge="1">
          <mxGeometry y="10" relative="1" as="geometry">
            <mxPoint as="offset" />
          </mxGeometry>
        </mxCell>
        <mxCell id="Iln7zaR0tb7gjahA7qLT-15" style="edgeStyle=orthogonalEdgeStyle;rounded=0;orthogonalLoop=1;jettySize=auto;html=1;entryX=0;entryY=0.5;entryDx=0;entryDy=0;" parent="WIyWlLk6GJQsqaUBKTNV-1" target="Iln7zaR0tb7gjahA7qLT-2" edge="1">
          <mxGeometry relative="1" as="geometry">
            <mxPoint x="220" y="335" as="sourcePoint" />
            <mxPoint x="750" y="320" as="targetPoint" />
            <Array as="points" />
          </mxGeometry>
        </mxCell>
        <mxCell id="WIyWlLk6GJQsqaUBKTNV-6" value="email.count&amp;gt;0" style="rhombus;whiteSpace=wrap;html=1;shadow=0;fontFamily=Helvetica;fontSize=12;align=center;strokeWidth=1;spacing=6;spacingTop=-4;" parent="WIyWlLk6GJQsqaUBKTNV-1" vertex="1">
          <mxGeometry x="170" y="170" width="100" height="80" as="geometry" />
        </mxCell>
        <mxCell id="WIyWlLk6GJQsqaUBKTNV-7" value="No work submitted!" style="rounded=1;whiteSpace=wrap;html=1;fontSize=12;glass=0;strokeWidth=1;shadow=0;fillColor=#dae8fc;strokeColor=#6c8ebf;" parent="WIyWlLk6GJQsqaUBKTNV-1" vertex="1">
          <mxGeometry x="320" y="190" width="120" height="40" as="geometry" />
        </mxCell>
        <mxCell id="Iln7zaR0tb7gjahA7qLT-8" value="" style="edgeStyle=orthogonalEdgeStyle;rounded=0;orthogonalLoop=1;jettySize=auto;html=1;" parent="WIyWlLk6GJQsqaUBKTNV-1" source="WIyWlLk6GJQsqaUBKTNV-11" target="Iln7zaR0tb7gjahA7qLT-7" edge="1">
          <mxGeometry relative="1" as="geometry" />
        </mxCell>
        <mxCell id="WIyWlLk6GJQsqaUBKTNV-11" value="open email" style="rounded=1;whiteSpace=wrap;html=1;fontSize=12;glass=0;strokeWidth=1;shadow=0;" parent="WIyWlLk6GJQsqaUBKTNV-1" vertex="1">
          <mxGeometry x="160" y="400" width="120" height="40" as="geometry" />
        </mxCell>
        <mxCell id="nEFb0NRuYZ_jhTo4WBhV-5" style="edgeStyle=orthogonalEdgeStyle;rounded=0;orthogonalLoop=1;jettySize=auto;html=1;entryX=0.5;entryY=0;entryDx=0;entryDy=0;" edge="1" parent="WIyWlLk6GJQsqaUBKTNV-1" source="Iln7zaR0tb7gjahA7qLT-2">
          <mxGeometry relative="1" as="geometry">
            <mxPoint x="1147.5" y="423" as="targetPoint" />
          </mxGeometry>
        </mxCell>
        <mxCell id="Iln7zaR0tb7gjahA7qLT-2" value="Open EE list file and loop" style="rounded=1;whiteSpace=wrap;html=1;" parent="WIyWlLk6GJQsqaUBKTNV-1" vertex="1">
          <mxGeometry x="1087.5" y="305" width="120" height="60" as="geometry" />
        </mxCell>
        <mxCell id="Iln7zaR0tb7gjahA7qLT-6" value="" style="edgeStyle=orthogonalEdgeStyle;rounded=0;orthogonalLoop=1;jettySize=auto;html=1;" parent="WIyWlLk6GJQsqaUBKTNV-1" source="Iln7zaR0tb7gjahA7qLT-3" target="Iln7zaR0tb7gjahA7qLT-5" edge="1">
          <mxGeometry relative="1" as="geometry" />
        </mxCell>
        <mxCell id="Iln7zaR0tb7gjahA7qLT-3" value="store EE name and info in dic" style="whiteSpace=wrap;html=1;rounded=1;" parent="WIyWlLk6GJQsqaUBKTNV-1" vertex="1">
          <mxGeometry x="1087.5" y="540" width="120" height="60" as="geometry" />
        </mxCell>
        <mxCell id="nEFb0NRuYZ_jhTo4WBhV-10" value="" style="edgeStyle=orthogonalEdgeStyle;rounded=0;orthogonalLoop=1;jettySize=auto;html=1;" edge="1" parent="WIyWlLk6GJQsqaUBKTNV-1" source="Iln7zaR0tb7gjahA7qLT-5" target="nEFb0NRuYZ_jhTo4WBhV-9">
          <mxGeometry relative="1" as="geometry" />
        </mxCell>
        <mxCell id="Iln7zaR0tb7gjahA7qLT-5" value="&lt;div&gt;EE_name: {Training Start Date&lt;/div&gt;&lt;div&gt;Co or Dept&lt;/div&gt;&lt;div&gt;Task Module&lt;/div&gt;&lt;div&gt;Training is Completed?&lt;br&gt;&lt;/div&gt;&lt;div&gt;Manager&lt;/div&gt;&lt;div&gt;Supervisor&lt;/div&gt;&lt;div&gt;NHBC Trainer&lt;/div&gt;&lt;div&gt;NHBC Trainer1&lt;/div&gt;&lt;div&gt;NHBC Trainer2&lt;/div&gt;&lt;div&gt;NHBC Trainer3&lt;/div&gt;&lt;div&gt;NHBC Trainer4&lt;/div&gt;&lt;div&gt;NHBC Trainer5&lt;/div&gt;&lt;div&gt;NHBC Trainer6&lt;/div&gt;&lt;div&gt;Rcvd #&lt;span style=&quot;white-space: pre;&quot;&gt;&amp;nbsp;&amp;nbsp;&amp;nbsp;&amp;nbsp;&lt;/span&gt;&lt;/div&gt;&lt;div&gt;FileNameW #&lt;/div&gt;&lt;div&gt;Dup #&lt;/div&gt;&lt;div&gt;&lt;span style=&quot;background-color: initial;&quot;&gt;DocW #&lt;/span&gt;}&lt;/div&gt;" style="whiteSpace=wrap;html=1;rounded=1;" parent="WIyWlLk6GJQsqaUBKTNV-1" vertex="1">
          <mxGeometry x="1042.5" y="660" width="210" height="302" as="geometry" />
        </mxCell>
        <mxCell id="Iln7zaR0tb7gjahA7qLT-12" value="Yes" style="edgeStyle=orthogonalEdgeStyle;rounded=0;orthogonalLoop=1;jettySize=auto;html=1;entryX=0.5;entryY=0;entryDx=0;entryDy=0;" parent="WIyWlLk6GJQsqaUBKTNV-1" source="Iln7zaR0tb7gjahA7qLT-7" target="Iln7zaR0tb7gjahA7qLT-20" edge="1">
          <mxGeometry relative="1" as="geometry">
            <mxPoint x="415" y="520" as="targetPoint" />
          </mxGeometry>
        </mxCell>
        <mxCell id="Iln7zaR0tb7gjahA7qLT-14" value="No" style="edgeStyle=orthogonalEdgeStyle;rounded=0;orthogonalLoop=1;jettySize=auto;html=1;" parent="WIyWlLk6GJQsqaUBKTNV-1" source="Iln7zaR0tb7gjahA7qLT-7" target="Iln7zaR0tb7gjahA7qLT-13" edge="1">
          <mxGeometry x="0.0133" relative="1" as="geometry">
            <mxPoint as="offset" />
          </mxGeometry>
        </mxCell>
        <mxCell id="Iln7zaR0tb7gjahA7qLT-7" value="sender name in EElist_dic" style="rhombus;whiteSpace=wrap;html=1;rounded=1;glass=0;strokeWidth=1;shadow=0;" parent="WIyWlLk6GJQsqaUBKTNV-1" vertex="1">
          <mxGeometry x="360" y="365" width="110" height="110" as="geometry" />
        </mxCell>
        <mxCell id="Iln7zaR0tb7gjahA7qLT-13" value="ignore email" style="rounded=1;whiteSpace=wrap;html=1;glass=0;strokeWidth=1;shadow=0;" parent="WIyWlLk6GJQsqaUBKTNV-1" vertex="1">
          <mxGeometry x="580" y="390" width="120" height="60" as="geometry" />
        </mxCell>
        <mxCell id="Iln7zaR0tb7gjahA7qLT-24" value="" style="edgeStyle=orthogonalEdgeStyle;rounded=0;orthogonalLoop=1;jettySize=auto;html=1;" parent="WIyWlLk6GJQsqaUBKTNV-1" source="Iln7zaR0tb7gjahA7qLT-20" target="Iln7zaR0tb7gjahA7qLT-23" edge="1">
          <mxGeometry relative="1" as="geometry" />
        </mxCell>
        <mxCell id="Iln7zaR0tb7gjahA7qLT-20" value="loop attachment" style="whiteSpace=wrap;html=1;rounded=1;glass=0;strokeWidth=1;shadow=0;" parent="WIyWlLk6GJQsqaUBKTNV-1" vertex="1">
          <mxGeometry x="354" y="533" width="120" height="30" as="geometry" />
        </mxCell>
        <mxCell id="Iln7zaR0tb7gjahA7qLT-26" value="" style="edgeStyle=orthogonalEdgeStyle;rounded=0;orthogonalLoop=1;jettySize=auto;html=1;" parent="WIyWlLk6GJQsqaUBKTNV-1" source="Iln7zaR0tb7gjahA7qLT-31" target="Iln7zaR0tb7gjahA7qLT-25" edge="1">
          <mxGeometry relative="1" as="geometry" />
        </mxCell>
        <mxCell id="Iln7zaR0tb7gjahA7qLT-52" value="" style="edgeStyle=orthogonalEdgeStyle;rounded=0;orthogonalLoop=1;jettySize=auto;html=1;" parent="WIyWlLk6GJQsqaUBKTNV-1" source="Iln7zaR0tb7gjahA7qLT-23" target="Iln7zaR0tb7gjahA7qLT-51" edge="1">
          <mxGeometry relative="1" as="geometry" />
        </mxCell>
        <mxCell id="Iln7zaR0tb7gjahA7qLT-23" value="get attachment filename" style="whiteSpace=wrap;html=1;rounded=1;glass=0;strokeWidth=1;shadow=0;" parent="WIyWlLk6GJQsqaUBKTNV-1" vertex="1">
          <mxGeometry x="354" y="593" width="120" height="60" as="geometry" />
        </mxCell>
        <mxCell id="Iln7zaR0tb7gjahA7qLT-28" value="" style="edgeStyle=orthogonalEdgeStyle;rounded=0;orthogonalLoop=1;jettySize=auto;html=1;" parent="WIyWlLk6GJQsqaUBKTNV-1" source="Iln7zaR0tb7gjahA7qLT-25" target="Iln7zaR0tb7gjahA7qLT-27" edge="1">
          <mxGeometry relative="1" as="geometry" />
        </mxCell>
        <mxCell id="Iln7zaR0tb7gjahA7qLT-30" value="" style="edgeStyle=orthogonalEdgeStyle;rounded=0;orthogonalLoop=1;jettySize=auto;html=1;" parent="WIyWlLk6GJQsqaUBKTNV-1" source="Iln7zaR0tb7gjahA7qLT-25" target="Iln7zaR0tb7gjahA7qLT-29" edge="1">
          <mxGeometry relative="1" as="geometry" />
        </mxCell>
        <mxCell id="Iln7zaR0tb7gjahA7qLT-25" value="EE list file&lt;div style=&quot;border-color: var(--border-color);&quot;&gt;Task Module&lt;/div&gt;" style="rhombus;whiteSpace=wrap;html=1;rounded=1;glass=0;strokeWidth=1;shadow=0;" parent="WIyWlLk6GJQsqaUBKTNV-1" vertex="1">
          <mxGeometry x="374" y="793" width="80" height="80" as="geometry" />
        </mxCell>
        <mxCell id="Iln7zaR0tb7gjahA7qLT-59" style="edgeStyle=orthogonalEdgeStyle;rounded=0;orthogonalLoop=1;jettySize=auto;html=1;entryX=0;entryY=0.5;entryDx=0;entryDy=0;exitX=0.5;exitY=1;exitDx=0;exitDy=0;" parent="WIyWlLk6GJQsqaUBKTNV-1" source="Iln7zaR0tb7gjahA7qLT-64" target="Iln7zaR0tb7gjahA7qLT-56" edge="1">
          <mxGeometry relative="1" as="geometry" />
        </mxCell>
        <mxCell id="Iln7zaR0tb7gjahA7qLT-66" style="edgeStyle=orthogonalEdgeStyle;rounded=0;orthogonalLoop=1;jettySize=auto;html=1;entryX=0.5;entryY=0;entryDx=0;entryDy=0;" parent="WIyWlLk6GJQsqaUBKTNV-1" source="Iln7zaR0tb7gjahA7qLT-27" target="Iln7zaR0tb7gjahA7qLT-64" edge="1">
          <mxGeometry relative="1" as="geometry" />
        </mxCell>
        <mxCell id="Iln7zaR0tb7gjahA7qLT-27" value="EG" style="whiteSpace=wrap;html=1;rounded=1;glass=0;strokeWidth=1;shadow=0;" parent="WIyWlLk6GJQsqaUBKTNV-1" vertex="1">
          <mxGeometry x="222.5" y="803" width="115" height="60" as="geometry" />
        </mxCell>
        <mxCell id="Iln7zaR0tb7gjahA7qLT-57" style="edgeStyle=orthogonalEdgeStyle;rounded=0;orthogonalLoop=1;jettySize=auto;html=1;entryX=1;entryY=0.5;entryDx=0;entryDy=0;exitX=0.5;exitY=1;exitDx=0;exitDy=0;" parent="WIyWlLk6GJQsqaUBKTNV-1" source="Iln7zaR0tb7gjahA7qLT-47" target="Iln7zaR0tb7gjahA7qLT-56" edge="1">
          <mxGeometry relative="1" as="geometry" />
        </mxCell>
        <mxCell id="Iln7zaR0tb7gjahA7qLT-63" style="edgeStyle=orthogonalEdgeStyle;rounded=0;orthogonalLoop=1;jettySize=auto;html=1;entryX=0.5;entryY=0;entryDx=0;entryDy=0;" parent="WIyWlLk6GJQsqaUBKTNV-1" source="Iln7zaR0tb7gjahA7qLT-29" target="Iln7zaR0tb7gjahA7qLT-47" edge="1">
          <mxGeometry relative="1" as="geometry" />
        </mxCell>
        <mxCell id="Iln7zaR0tb7gjahA7qLT-29" value="EB" style="whiteSpace=wrap;html=1;rounded=1;glass=0;strokeWidth=1;shadow=0;" parent="WIyWlLk6GJQsqaUBKTNV-1" vertex="1">
          <mxGeometry x="492.5" y="803" width="120" height="60" as="geometry" />
        </mxCell>
        <mxCell id="Iln7zaR0tb7gjahA7qLT-38" value="" style="edgeStyle=orthogonalEdgeStyle;rounded=0;orthogonalLoop=1;jettySize=auto;html=1;" parent="WIyWlLk6GJQsqaUBKTNV-1" source="Iln7zaR0tb7gjahA7qLT-23" target="Iln7zaR0tb7gjahA7qLT-31" edge="1">
          <mxGeometry relative="1" as="geometry">
            <mxPoint x="414" y="653" as="sourcePoint" />
            <mxPoint x="415" y="813" as="targetPoint" />
            <Array as="points">
              <mxPoint x="414" y="673" />
              <mxPoint x="414" y="673" />
            </Array>
          </mxGeometry>
        </mxCell>
        <mxCell id="nEFb0NRuYZ_jhTo4WBhV-7" style="edgeStyle=orthogonalEdgeStyle;rounded=0;orthogonalLoop=1;jettySize=auto;html=1;" edge="1" parent="WIyWlLk6GJQsqaUBKTNV-1" source="Iln7zaR0tb7gjahA7qLT-31" target="Iln7zaR0tb7gjahA7qLT-5">
          <mxGeometry relative="1" as="geometry">
            <Array as="points">
              <mxPoint x="730" y="750" />
              <mxPoint x="730" y="821" />
            </Array>
          </mxGeometry>
        </mxCell>
        <mxCell id="nEFb0NRuYZ_jhTo4WBhV-8" value="update EE dic" style="edgeLabel;html=1;align=center;verticalAlign=middle;resizable=0;points=[];" vertex="1" connectable="0" parent="nEFb0NRuYZ_jhTo4WBhV-7">
          <mxGeometry x="-0.1982" relative="1" as="geometry">
            <mxPoint x="-43" y="-10" as="offset" />
          </mxGeometry>
        </mxCell>
        <mxCell id="Iln7zaR0tb7gjahA7qLT-31" value="check file name&amp;nbsp;Duplicate and write to Log tab" style="whiteSpace=wrap;html=1;rounded=1;glass=0;strokeWidth=1;shadow=0;" parent="WIyWlLk6GJQsqaUBKTNV-1" vertex="1">
          <mxGeometry x="354" y="693" width="120" height="60" as="geometry" />
        </mxCell>
        <mxCell id="Iln7zaR0tb7gjahA7qLT-53" style="edgeStyle=orthogonalEdgeStyle;rounded=0;orthogonalLoop=1;jettySize=auto;html=1;entryX=1;entryY=0.5;entryDx=0;entryDy=0;exitX=0.5;exitY=1;exitDx=0;exitDy=0;" parent="WIyWlLk6GJQsqaUBKTNV-1" source="Iln7zaR0tb7gjahA7qLT-51" target="Iln7zaR0tb7gjahA7qLT-31" edge="1">
          <mxGeometry relative="1" as="geometry" />
        </mxCell>
        <mxCell id="nEFb0NRuYZ_jhTo4WBhV-12" value="" style="edgeStyle=orthogonalEdgeStyle;rounded=0;orthogonalLoop=1;jettySize=auto;html=1;" edge="1" parent="WIyWlLk6GJQsqaUBKTNV-1" source="Iln7zaR0tb7gjahA7qLT-51" target="nEFb0NRuYZ_jhTo4WBhV-11">
          <mxGeometry relative="1" as="geometry" />
        </mxCell>
        <mxCell id="nEFb0NRuYZ_jhTo4WBhV-15" value="Output" style="edgeLabel;html=1;align=center;verticalAlign=middle;resizable=0;points=[];" vertex="1" connectable="0" parent="nEFb0NRuYZ_jhTo4WBhV-12">
          <mxGeometry x="0.0261" y="1" relative="1" as="geometry">
            <mxPoint as="offset" />
          </mxGeometry>
        </mxCell>
        <mxCell id="Iln7zaR0tb7gjahA7qLT-51" value="output:&amp;nbsp;&lt;br style=&quot;border-color: var(--border-color);&quot;&gt;&lt;div style=&quot;border-color: var(--border-color);&quot;&gt;FileNameWrong&lt;/div&gt;&lt;div style=&quot;border-color: var(--border-color);&quot;&gt;DocTypeWrong&lt;/div&gt;&lt;div style=&quot;border-color: var(--border-color);&quot;&gt;sender name&lt;/div&gt;&lt;div style=&quot;border-color: var(--border-color);&quot;&gt;filename&lt;/div&gt;" style="shape=hexagon;perimeter=hexagonPerimeter2;whiteSpace=wrap;html=1;fixedSize=1;rounded=1;glass=0;strokeWidth=1;shadow=0;" parent="WIyWlLk6GJQsqaUBKTNV-1" vertex="1">
          <mxGeometry x="515" y="583" width="120" height="80" as="geometry" />
        </mxCell>
        <mxCell id="Iln7zaR0tb7gjahA7qLT-69" style="edgeStyle=orthogonalEdgeStyle;rounded=0;orthogonalLoop=1;jettySize=auto;html=1;entryX=0;entryY=0.5;entryDx=0;entryDy=0;" parent="WIyWlLk6GJQsqaUBKTNV-1" source="Iln7zaR0tb7gjahA7qLT-56" target="Iln7zaR0tb7gjahA7qLT-20" edge="1">
          <mxGeometry relative="1" as="geometry">
            <Array as="points">
              <mxPoint x="414" y="1103" />
              <mxPoint x="160" y="1103" />
              <mxPoint x="160" y="548" />
            </Array>
          </mxGeometry>
        </mxCell>
        <mxCell id="Iln7zaR0tb7gjahA7qLT-70" value="loop attachment" style="edgeLabel;html=1;align=center;verticalAlign=middle;resizable=0;points=[];" parent="Iln7zaR0tb7gjahA7qLT-69" vertex="1" connectable="0">
          <mxGeometry x="0.2483" relative="1" as="geometry">
            <mxPoint as="offset" />
          </mxGeometry>
        </mxCell>
        <mxCell id="Iln7zaR0tb7gjahA7qLT-56" value="Save to folder" style="rounded=1;whiteSpace=wrap;html=1;" parent="WIyWlLk6GJQsqaUBKTNV-1" vertex="1">
          <mxGeometry x="354" y="1003" width="120" height="60" as="geometry" />
        </mxCell>
        <mxCell id="Iln7zaR0tb7gjahA7qLT-47" value="move to issue folder if&amp;nbsp;FileNameWrong&lt;div style=&quot;border-color: var(--border-color);&quot;&gt;DocTypeWrong&lt;/div&gt;" style="whiteSpace=wrap;html=1;rounded=1;glass=0;strokeWidth=1;shadow=0;" parent="WIyWlLk6GJQsqaUBKTNV-1" vertex="1">
          <mxGeometry x="492.5" y="903" width="120" height="60" as="geometry" />
        </mxCell>
        <mxCell id="Iln7zaR0tb7gjahA7qLT-64" value="move to issue folder if&amp;nbsp;FileNameWrong&lt;div style=&quot;border-color: var(--border-color);&quot;&gt;DocTypeWrong&lt;/div&gt;" style="whiteSpace=wrap;html=1;rounded=1;glass=0;strokeWidth=1;shadow=0;" parent="WIyWlLk6GJQsqaUBKTNV-1" vertex="1">
          <mxGeometry x="220" y="912" width="120" height="60" as="geometry" />
        </mxCell>
        <mxCell id="Iln7zaR0tb7gjahA7qLT-74" value="Next Email" style="text;html=1;align=center;verticalAlign=middle;resizable=0;points=[];autosize=1;strokeColor=none;fillColor=none;" parent="WIyWlLk6GJQsqaUBKTNV-1" vertex="1">
          <mxGeometry x="50" y="398" width="80" height="30" as="geometry" />
        </mxCell>
        <mxCell id="nEFb0NRuYZ_jhTo4WBhV-6" style="edgeStyle=orthogonalEdgeStyle;rounded=0;orthogonalLoop=1;jettySize=auto;html=1;" edge="1" parent="WIyWlLk6GJQsqaUBKTNV-1" target="Iln7zaR0tb7gjahA7qLT-3">
          <mxGeometry relative="1" as="geometry">
            <mxPoint x="1147.5" y="503" as="sourcePoint" />
          </mxGeometry>
        </mxCell>
        <mxCell id="nEFb0NRuYZ_jhTo4WBhV-1" value="training start date &amp;lt;= audit date-dayfactor +1&lt;br&gt;C/D = C&lt;br&gt;Training is Completed=N" style="rhombus;whiteSpace=wrap;html=1;rounded=1;glass=0;strokeWidth=1;shadow=0;" vertex="1" parent="WIyWlLk6GJQsqaUBKTNV-1">
          <mxGeometry x="990" y="400" width="315" height="98" as="geometry" />
        </mxCell>
        <mxCell id="nEFb0NRuYZ_jhTo4WBhV-9" value="write to Data tab" style="whiteSpace=wrap;html=1;rounded=1;" vertex="1" parent="WIyWlLk6GJQsqaUBKTNV-1">
          <mxGeometry x="1087.5" y="1120" width="120" height="60" as="geometry" />
        </mxCell>
        <mxCell id="nEFb0NRuYZ_jhTo4WBhV-11" value="&lt;div style=&quot;border-color: var(--border-color);&quot;&gt;Sender name&lt;/div&gt;&lt;div style=&quot;border-color: var(--border-color);&quot;&gt;: {Audit&amp;nbsp;Date&lt;/div&gt;&lt;div style=&quot;border-color: var(--border-color);&quot;&gt;Sender name&lt;/div&gt;&lt;div style=&quot;border-color: var(--border-color);&quot;&gt;Received Checklist List File Name&lt;/div&gt;&lt;div style=&quot;border-color: var(--border-color);&quot;&gt;FileNameWrong&lt;/div&gt;&lt;div style=&quot;border-color: var(--border-color);&quot;&gt;Duplicate&lt;/div&gt;&lt;div style=&quot;border-color: var(--border-color);&quot;&gt;&lt;span style=&quot;background-color: initial;&quot;&gt;DocTypeWrong&lt;/span&gt;}&lt;/div&gt;" style="shape=hexagon;perimeter=hexagonPerimeter2;whiteSpace=wrap;html=1;fixedSize=1;rounded=1;glass=0;strokeWidth=1;shadow=0;" vertex="1" parent="WIyWlLk6GJQsqaUBKTNV-1">
          <mxGeometry x="750" y="528" width="120" height="192" as="geometry" />
        </mxCell>
        <mxCell id="nEFb0NRuYZ_jhTo4WBhV-18" value="Move email to finish folder" style="rounded=1;whiteSpace=wrap;html=1;" vertex="1" parent="WIyWlLk6GJQsqaUBKTNV-1">
          <mxGeometry x="340" y="1169" width="120" height="60" as="geometry" />
        </mxCell>
        <mxCell id="nEFb0NRuYZ_jhTo4WBhV-19" value="File name" style="rounded=0;whiteSpace=wrap;html=1;" vertex="1" parent="WIyWlLk6GJQsqaUBKTNV-1">
          <mxGeometry x="1530" y="110" width="120" height="60" as="geometry" />
        </mxCell>
        <mxCell id="nEFb0NRuYZ_jhTo4WBhV-92" value="" style="edgeStyle=orthogonalEdgeStyle;rounded=0;orthogonalLoop=1;jettySize=auto;html=1;" edge="1" parent="WIyWlLk6GJQsqaUBKTNV-1" source="nEFb0NRuYZ_jhTo4WBhV-29" target="nEFb0NRuYZ_jhTo4WBhV-91">
          <mxGeometry relative="1" as="geometry" />
        </mxCell>
        <mxCell id="nEFb0NRuYZ_jhTo4WBhV-29" value="analyze_name" style="rounded=1;whiteSpace=wrap;html=1;" vertex="1" parent="WIyWlLk6GJQsqaUBKTNV-1">
          <mxGeometry x="2750" y="368" width="220" height="60" as="geometry" />
        </mxCell>
        <mxCell id="nEFb0NRuYZ_jhTo4WBhV-34" value="" style="edgeStyle=orthogonalEdgeStyle;rounded=0;orthogonalLoop=1;jettySize=auto;html=1;" edge="1" parent="WIyWlLk6GJQsqaUBKTNV-1" source="nEFb0NRuYZ_jhTo4WBhV-31" target="nEFb0NRuYZ_jhTo4WBhV-33">
          <mxGeometry relative="1" as="geometry" />
        </mxCell>
        <mxCell id="nEFb0NRuYZ_jhTo4WBhV-31" value="open and read EE list file" style="rounded=1;whiteSpace=wrap;html=1;" vertex="1" parent="WIyWlLk6GJQsqaUBKTNV-1">
          <mxGeometry x="2360" y="110" width="120" height="60" as="geometry" />
        </mxCell>
        <mxCell id="nEFb0NRuYZ_jhTo4WBhV-36" value="" style="edgeStyle=orthogonalEdgeStyle;rounded=0;orthogonalLoop=1;jettySize=auto;html=1;" edge="1" parent="WIyWlLk6GJQsqaUBKTNV-1" source="nEFb0NRuYZ_jhTo4WBhV-32" target="nEFb0NRuYZ_jhTo4WBhV-35">
          <mxGeometry relative="1" as="geometry" />
        </mxCell>
        <mxCell id="nEFb0NRuYZ_jhTo4WBhV-32" value="Loop EB answer file folder to get task code" style="rounded=1;whiteSpace=wrap;html=1;" vertex="1" parent="WIyWlLk6GJQsqaUBKTNV-1">
          <mxGeometry x="2510" y="110" width="120" height="60" as="geometry" />
        </mxCell>
        <mxCell id="nEFb0NRuYZ_jhTo4WBhV-104" style="edgeStyle=orthogonalEdgeStyle;rounded=0;orthogonalLoop=1;jettySize=auto;html=1;" edge="1" parent="WIyWlLk6GJQsqaUBKTNV-1" source="nEFb0NRuYZ_jhTo4WBhV-33">
          <mxGeometry relative="1" as="geometry">
            <mxPoint x="2560" y="400" as="targetPoint" />
            <Array as="points">
              <mxPoint x="2420" y="350" />
              <mxPoint x="2561" y="350" />
              <mxPoint x="2561" y="400" />
            </Array>
          </mxGeometry>
        </mxCell>
        <mxCell id="nEFb0NRuYZ_jhTo4WBhV-33" value="EE list dic" style="shape=hexagon;perimeter=hexagonPerimeter2;whiteSpace=wrap;html=1;fixedSize=1;rounded=1;" vertex="1" parent="WIyWlLk6GJQsqaUBKTNV-1">
          <mxGeometry x="2360" y="190" width="120" height="80" as="geometry" />
        </mxCell>
        <mxCell id="nEFb0NRuYZ_jhTo4WBhV-108" style="edgeStyle=orthogonalEdgeStyle;rounded=0;orthogonalLoop=1;jettySize=auto;html=1;" edge="1" parent="WIyWlLk6GJQsqaUBKTNV-1" source="nEFb0NRuYZ_jhTo4WBhV-35">
          <mxGeometry relative="1" as="geometry">
            <mxPoint x="2600" y="400" as="targetPoint" />
          </mxGeometry>
        </mxCell>
        <mxCell id="nEFb0NRuYZ_jhTo4WBhV-35" value="EB task code dic" style="shape=hexagon;perimeter=hexagonPerimeter2;whiteSpace=wrap;html=1;fixedSize=1;rounded=1;" vertex="1" parent="WIyWlLk6GJQsqaUBKTNV-1">
          <mxGeometry x="2510" y="190" width="120" height="80" as="geometry" />
        </mxCell>
        <mxCell id="nEFb0NRuYZ_jhTo4WBhV-90" value="" style="edgeStyle=orthogonalEdgeStyle;rounded=0;orthogonalLoop=1;jettySize=auto;html=1;" edge="1" parent="WIyWlLk6GJQsqaUBKTNV-1" source="nEFb0NRuYZ_jhTo4WBhV-37" target="nEFb0NRuYZ_jhTo4WBhV-38">
          <mxGeometry relative="1" as="geometry" />
        </mxCell>
        <mxCell id="nEFb0NRuYZ_jhTo4WBhV-37" value="generate ignore list" style="rounded=1;whiteSpace=wrap;html=1;" vertex="1" parent="WIyWlLk6GJQsqaUBKTNV-1">
          <mxGeometry x="2647.5" y="110" width="120" height="60" as="geometry" />
        </mxCell>
        <mxCell id="nEFb0NRuYZ_jhTo4WBhV-112" style="edgeStyle=orthogonalEdgeStyle;rounded=0;orthogonalLoop=1;jettySize=auto;html=1;" edge="1" parent="WIyWlLk6GJQsqaUBKTNV-1" source="nEFb0NRuYZ_jhTo4WBhV-38">
          <mxGeometry relative="1" as="geometry">
            <mxPoint x="2708" y="400" as="targetPoint" />
          </mxGeometry>
        </mxCell>
        <mxCell id="nEFb0NRuYZ_jhTo4WBhV-38" value="ignore list&amp;nbsp;dic" style="shape=hexagon;perimeter=hexagonPerimeter2;whiteSpace=wrap;html=1;fixedSize=1;rounded=1;" vertex="1" parent="WIyWlLk6GJQsqaUBKTNV-1">
          <mxGeometry x="2647.5" y="190" width="120" height="80" as="geometry" />
        </mxCell>
        <mxCell id="nEFb0NRuYZ_jhTo4WBhV-43" value="" style="edgeStyle=orthogonalEdgeStyle;rounded=0;orthogonalLoop=1;jettySize=auto;html=1;" edge="1" parent="WIyWlLk6GJQsqaUBKTNV-1" source="nEFb0NRuYZ_jhTo4WBhV-19" target="nEFb0NRuYZ_jhTo4WBhV-42">
          <mxGeometry relative="1" as="geometry">
            <mxPoint x="2050" y="200" as="sourcePoint" />
            <mxPoint x="2460" y="480" as="targetPoint" />
            <Array as="points" />
          </mxGeometry>
        </mxCell>
        <mxCell id="nEFb0NRuYZ_jhTo4WBhV-46" value="" style="edgeStyle=orthogonalEdgeStyle;rounded=0;orthogonalLoop=1;jettySize=auto;html=1;" edge="1" parent="WIyWlLk6GJQsqaUBKTNV-1" source="nEFb0NRuYZ_jhTo4WBhV-42" target="nEFb0NRuYZ_jhTo4WBhV-45">
          <mxGeometry relative="1" as="geometry" />
        </mxCell>
        <mxCell id="nEFb0NRuYZ_jhTo4WBhV-42" value="ExtractDetailsFromFileName" style="rounded=1;whiteSpace=wrap;html=1;" vertex="1" parent="WIyWlLk6GJQsqaUBKTNV-1">
          <mxGeometry x="2000" y="368" width="160" height="60" as="geometry" />
        </mxCell>
        <mxCell id="nEFb0NRuYZ_jhTo4WBhV-79" value="" style="edgeStyle=orthogonalEdgeStyle;rounded=0;orthogonalLoop=1;jettySize=auto;html=1;" edge="1" parent="WIyWlLk6GJQsqaUBKTNV-1" source="nEFb0NRuYZ_jhTo4WBhV-45" target="nEFb0NRuYZ_jhTo4WBhV-78">
          <mxGeometry relative="1" as="geometry" />
        </mxCell>
        <mxCell id="nEFb0NRuYZ_jhTo4WBhV-45" value="loop patterns&lt;br&gt;Pattern_eg&lt;br&gt;Pattern_pr&lt;br&gt;Pattern_tracklg&lt;br&gt;Pattern_eb" style="whiteSpace=wrap;html=1;rounded=1;" vertex="1" parent="WIyWlLk6GJQsqaUBKTNV-1">
          <mxGeometry x="1992.5" y="530" width="175" height="80" as="geometry" />
        </mxCell>
        <mxCell id="nEFb0NRuYZ_jhTo4WBhV-77" value="" style="edgeStyle=orthogonalEdgeStyle;rounded=0;orthogonalLoop=1;jettySize=auto;html=1;" edge="1" parent="WIyWlLk6GJQsqaUBKTNV-1" source="nEFb0NRuYZ_jhTo4WBhV-49" target="nEFb0NRuYZ_jhTo4WBhV-76">
          <mxGeometry relative="1" as="geometry" />
        </mxCell>
        <mxCell id="nEFb0NRuYZ_jhTo4WBhV-49" value="" style="whiteSpace=wrap;html=1;rounded=1;fillColor=#f5f5f5;fontColor=#333333;strokeColor=#666666;" vertex="1" parent="WIyWlLk6GJQsqaUBKTNV-1">
          <mxGeometry x="1825" y="753" width="510" height="290" as="geometry" />
        </mxCell>
        <mxCell id="nEFb0NRuYZ_jhTo4WBhV-57" value="" style="edgeStyle=orthogonalEdgeStyle;rounded=0;orthogonalLoop=1;jettySize=auto;html=1;" edge="1" parent="WIyWlLk6GJQsqaUBKTNV-1" source="nEFb0NRuYZ_jhTo4WBhV-51" target="nEFb0NRuYZ_jhTo4WBhV-56">
          <mxGeometry relative="1" as="geometry" />
        </mxCell>
        <mxCell id="nEFb0NRuYZ_jhTo4WBhV-51" value="Case Pattern_eg" style="whiteSpace=wrap;html=1;rounded=1;" vertex="1" parent="WIyWlLk6GJQsqaUBKTNV-1">
          <mxGeometry x="1855" y="773" width="100" height="40" as="geometry" />
        </mxCell>
        <mxCell id="nEFb0NRuYZ_jhTo4WBhV-59" value="" style="edgeStyle=orthogonalEdgeStyle;rounded=0;orthogonalLoop=1;jettySize=auto;html=1;" edge="1" parent="WIyWlLk6GJQsqaUBKTNV-1" source="nEFb0NRuYZ_jhTo4WBhV-53" target="nEFb0NRuYZ_jhTo4WBhV-58">
          <mxGeometry relative="1" as="geometry" />
        </mxCell>
        <mxCell id="nEFb0NRuYZ_jhTo4WBhV-53" value="Case Pattern_pr" style="whiteSpace=wrap;html=1;rounded=1;" vertex="1" parent="WIyWlLk6GJQsqaUBKTNV-1">
          <mxGeometry x="1965" y="773" width="100" height="40" as="geometry" />
        </mxCell>
        <mxCell id="nEFb0NRuYZ_jhTo4WBhV-60" style="edgeStyle=orthogonalEdgeStyle;rounded=0;orthogonalLoop=1;jettySize=auto;html=1;entryX=0.5;entryY=0;entryDx=0;entryDy=0;" edge="1" parent="WIyWlLk6GJQsqaUBKTNV-1" source="nEFb0NRuYZ_jhTo4WBhV-54" target="nEFb0NRuYZ_jhTo4WBhV-58">
          <mxGeometry relative="1" as="geometry" />
        </mxCell>
        <mxCell id="nEFb0NRuYZ_jhTo4WBhV-54" value="Case Pattern_tracklg" style="whiteSpace=wrap;html=1;rounded=1;" vertex="1" parent="WIyWlLk6GJQsqaUBKTNV-1">
          <mxGeometry x="2075" y="773" width="120" height="40" as="geometry" />
        </mxCell>
        <mxCell id="nEFb0NRuYZ_jhTo4WBhV-62" value="" style="edgeStyle=orthogonalEdgeStyle;rounded=0;orthogonalLoop=1;jettySize=auto;html=1;" edge="1" parent="WIyWlLk6GJQsqaUBKTNV-1" source="nEFb0NRuYZ_jhTo4WBhV-55" target="nEFb0NRuYZ_jhTo4WBhV-61">
          <mxGeometry relative="1" as="geometry" />
        </mxCell>
        <mxCell id="nEFb0NRuYZ_jhTo4WBhV-55" value="Case Pattern_eb" style="whiteSpace=wrap;html=1;rounded=1;" vertex="1" parent="WIyWlLk6GJQsqaUBKTNV-1">
          <mxGeometry x="2205" y="773" width="100" height="40" as="geometry" />
        </mxCell>
        <mxCell id="nEFb0NRuYZ_jhTo4WBhV-75" value="" style="edgeStyle=orthogonalEdgeStyle;rounded=0;orthogonalLoop=1;jettySize=auto;html=1;" edge="1" parent="WIyWlLk6GJQsqaUBKTNV-1" source="nEFb0NRuYZ_jhTo4WBhV-56" target="nEFb0NRuYZ_jhTo4WBhV-74">
          <mxGeometry relative="1" as="geometry" />
        </mxCell>
        <mxCell id="nEFb0NRuYZ_jhTo4WBhV-56" value="Array(TaskCode, AccountName, Carrier, EE_Name)" style="whiteSpace=wrap;html=1;rounded=1;" vertex="1" parent="WIyWlLk6GJQsqaUBKTNV-1">
          <mxGeometry x="1845" y="853" width="120" height="60" as="geometry" />
        </mxCell>
        <mxCell id="nEFb0NRuYZ_jhTo4WBhV-73" value="" style="edgeStyle=orthogonalEdgeStyle;rounded=0;orthogonalLoop=1;jettySize=auto;html=1;" edge="1" parent="WIyWlLk6GJQsqaUBKTNV-1" source="nEFb0NRuYZ_jhTo4WBhV-58" target="nEFb0NRuYZ_jhTo4WBhV-72">
          <mxGeometry relative="1" as="geometry" />
        </mxCell>
        <mxCell id="nEFb0NRuYZ_jhTo4WBhV-58" value="Array(TaskCode, &quot;&quot;, &quot;&quot;, EE_Name)" style="whiteSpace=wrap;html=1;rounded=1;" vertex="1" parent="WIyWlLk6GJQsqaUBKTNV-1">
          <mxGeometry x="2015" y="853" width="120" height="60" as="geometry" />
        </mxCell>
        <mxCell id="nEFb0NRuYZ_jhTo4WBhV-66" value="" style="edgeStyle=orthogonalEdgeStyle;rounded=0;orthogonalLoop=1;jettySize=auto;html=1;" edge="1" parent="WIyWlLk6GJQsqaUBKTNV-1" source="nEFb0NRuYZ_jhTo4WBhV-61" target="nEFb0NRuYZ_jhTo4WBhV-65">
          <mxGeometry relative="1" as="geometry" />
        </mxCell>
        <mxCell id="nEFb0NRuYZ_jhTo4WBhV-61" value="Array(TaskCode, &quot;&quot;, &quot;&quot;, EE_Name)" style="whiteSpace=wrap;html=1;rounded=1;" vertex="1" parent="WIyWlLk6GJQsqaUBKTNV-1">
          <mxGeometry x="2195" y="836" width="120" height="37" as="geometry" />
        </mxCell>
        <mxCell id="nEFb0NRuYZ_jhTo4WBhV-68" value="" style="edgeStyle=orthogonalEdgeStyle;rounded=0;orthogonalLoop=1;jettySize=auto;html=1;" edge="1" parent="WIyWlLk6GJQsqaUBKTNV-1" source="nEFb0NRuYZ_jhTo4WBhV-65" target="nEFb0NRuYZ_jhTo4WBhV-67">
          <mxGeometry relative="1" as="geometry" />
        </mxCell>
        <mxCell id="nEFb0NRuYZ_jhTo4WBhV-65" value="if TaskCode Like &quot;*Peer*&quot; Or TaskCode Like &quot;*Eligibility*Log*&quot;&amp;nbsp;" style="whiteSpace=wrap;html=1;rounded=1;" vertex="1" parent="WIyWlLk6GJQsqaUBKTNV-1">
          <mxGeometry x="2195" y="896" width="120" height="60" as="geometry" />
        </mxCell>
        <mxCell id="nEFb0NRuYZ_jhTo4WBhV-67" value="err_msg = &quot;Invalid format&quot;" style="whiteSpace=wrap;html=1;rounded=1;" vertex="1" parent="WIyWlLk6GJQsqaUBKTNV-1">
          <mxGeometry x="2195" y="973" width="120" height="60" as="geometry" />
        </mxCell>
        <mxCell id="nEFb0NRuYZ_jhTo4WBhV-72" value="err_msg = &quot;&quot;" style="whiteSpace=wrap;html=1;rounded=1;" vertex="1" parent="WIyWlLk6GJQsqaUBKTNV-1">
          <mxGeometry x="2015" y="936" width="120" height="60" as="geometry" />
        </mxCell>
        <mxCell id="nEFb0NRuYZ_jhTo4WBhV-74" value="err_msg = &quot;&quot;" style="whiteSpace=wrap;html=1;rounded=1;" vertex="1" parent="WIyWlLk6GJQsqaUBKTNV-1">
          <mxGeometry x="1845" y="936" width="120" height="60" as="geometry" />
        </mxCell>
        <mxCell id="nEFb0NRuYZ_jhTo4WBhV-86" value="" style="edgeStyle=orthogonalEdgeStyle;rounded=0;orthogonalLoop=1;jettySize=auto;html=1;" edge="1" parent="WIyWlLk6GJQsqaUBKTNV-1" source="nEFb0NRuYZ_jhTo4WBhV-76" target="nEFb0NRuYZ_jhTo4WBhV-85">
          <mxGeometry relative="1" as="geometry" />
        </mxCell>
        <mxCell id="nEFb0NRuYZ_jhTo4WBhV-76" value="&lt;div&gt;If err_msg = &quot;&quot; Then&lt;/div&gt;&lt;div&gt;output= Array(TaskCode, AccountName, Carrier, EE_Name)&lt;/div&gt;&lt;div&gt;&lt;span style=&quot;background-color: initial;&quot;&gt;Else&lt;/span&gt;&lt;/div&gt;&lt;div&gt;output= Array(&quot;Invalid format&quot;, &quot;&quot;, &quot;&quot;)&lt;/div&gt;&lt;div&gt;End If&lt;/div&gt;" style="whiteSpace=wrap;html=1;rounded=1;align=left;" vertex="1" parent="WIyWlLk6GJQsqaUBKTNV-1">
          <mxGeometry x="1910" y="1081" width="340" height="90" as="geometry" />
        </mxCell>
        <mxCell id="nEFb0NRuYZ_jhTo4WBhV-83" style="edgeStyle=orthogonalEdgeStyle;rounded=0;orthogonalLoop=1;jettySize=auto;html=1;entryX=1;entryY=0.5;entryDx=0;entryDy=0;" edge="1" parent="WIyWlLk6GJQsqaUBKTNV-1" source="nEFb0NRuYZ_jhTo4WBhV-78" target="nEFb0NRuYZ_jhTo4WBhV-45">
          <mxGeometry relative="1" as="geometry">
            <mxPoint x="2240" y="530" as="targetPoint" />
            <Array as="points">
              <mxPoint x="2360" y="663" />
              <mxPoint x="2360" y="570" />
            </Array>
          </mxGeometry>
        </mxCell>
        <mxCell id="nEFb0NRuYZ_jhTo4WBhV-84" value="No, loop next pattern" style="edgeLabel;html=1;align=center;verticalAlign=middle;resizable=0;points=[];" vertex="1" connectable="0" parent="nEFb0NRuYZ_jhTo4WBhV-83">
          <mxGeometry x="0.0667" y="2" relative="1" as="geometry">
            <mxPoint as="offset" />
          </mxGeometry>
        </mxCell>
        <mxCell id="nEFb0NRuYZ_jhTo4WBhV-78" value="matches.Count = 1" style="rhombus;whiteSpace=wrap;html=1;rounded=1;" vertex="1" parent="WIyWlLk6GJQsqaUBKTNV-1">
          <mxGeometry x="2020" y="623" width="120" height="80" as="geometry" />
        </mxCell>
        <mxCell id="nEFb0NRuYZ_jhTo4WBhV-81" style="edgeStyle=orthogonalEdgeStyle;rounded=0;orthogonalLoop=1;jettySize=auto;html=1;entryX=0.5;entryY=0;entryDx=0;entryDy=0;" edge="1" parent="WIyWlLk6GJQsqaUBKTNV-1" source="nEFb0NRuYZ_jhTo4WBhV-78" target="nEFb0NRuYZ_jhTo4WBhV-49">
          <mxGeometry relative="1" as="geometry" />
        </mxCell>
        <mxCell id="nEFb0NRuYZ_jhTo4WBhV-82" value="Yes" style="edgeLabel;html=1;align=center;verticalAlign=middle;resizable=0;points=[];" vertex="1" connectable="0" parent="nEFb0NRuYZ_jhTo4WBhV-81">
          <mxGeometry x="-0.3533" y="-1" relative="1" as="geometry">
            <mxPoint as="offset" />
          </mxGeometry>
        </mxCell>
        <mxCell id="nEFb0NRuYZ_jhTo4WBhV-85" value="Exit pattern loop&lt;br&gt;Output Array()" style="whiteSpace=wrap;html=1;align=left;rounded=1;" vertex="1" parent="WIyWlLk6GJQsqaUBKTNV-1">
          <mxGeometry x="2020" y="1210" width="120" height="60" as="geometry" />
        </mxCell>
        <mxCell id="nEFb0NRuYZ_jhTo4WBhV-94" value="" style="edgeStyle=orthogonalEdgeStyle;rounded=0;orthogonalLoop=1;jettySize=auto;html=1;" edge="1" parent="WIyWlLk6GJQsqaUBKTNV-1" source="nEFb0NRuYZ_jhTo4WBhV-91" target="nEFb0NRuYZ_jhTo4WBhV-93">
          <mxGeometry relative="1" as="geometry" />
        </mxCell>
        <mxCell id="nEFb0NRuYZ_jhTo4WBhV-96" value="" style="edgeStyle=orthogonalEdgeStyle;rounded=0;orthogonalLoop=1;jettySize=auto;html=1;" edge="1" parent="WIyWlLk6GJQsqaUBKTNV-1" source="nEFb0NRuYZ_jhTo4WBhV-91" target="nEFb0NRuYZ_jhTo4WBhV-95">
          <mxGeometry relative="1" as="geometry" />
        </mxCell>
        <mxCell id="nEFb0NRuYZ_jhTo4WBhV-91" value="Array(0)&amp;lt;&amp;gt; &quot;Invalid format&quot;" style="rhombus;whiteSpace=wrap;html=1;rounded=1;" vertex="1" parent="WIyWlLk6GJQsqaUBKTNV-1">
          <mxGeometry x="2767.5" y="530" width="185" height="110" as="geometry" />
        </mxCell>
        <mxCell id="nEFb0NRuYZ_jhTo4WBhV-93" value="" style="whiteSpace=wrap;html=1;rounded=1;" vertex="1" parent="WIyWlLk6GJQsqaUBKTNV-1">
          <mxGeometry x="2800" y="670" width="120" height="60" as="geometry" />
        </mxCell>
        <mxCell id="nEFb0NRuYZ_jhTo4WBhV-95" value="res = Array(&quot;File name format not recognized.&quot;, &quot;&quot;, &quot;&quot;, &quot;&quot;)" style="whiteSpace=wrap;html=1;rounded=1;" vertex="1" parent="WIyWlLk6GJQsqaUBKTNV-1">
          <mxGeometry x="3570" y="552" width="185" height="65" as="geometry" />
        </mxCell>
        <mxCell id="nEFb0NRuYZ_jhTo4WBhV-101" style="edgeStyle=orthogonalEdgeStyle;rounded=0;orthogonalLoop=1;jettySize=auto;html=1;entryX=0;entryY=0.5;entryDx=0;entryDy=0;" edge="1" parent="WIyWlLk6GJQsqaUBKTNV-1" source="nEFb0NRuYZ_jhTo4WBhV-99" target="nEFb0NRuYZ_jhTo4WBhV-29">
          <mxGeometry relative="1" as="geometry">
            <mxPoint x="2530" y="398" as="targetPoint" />
          </mxGeometry>
        </mxCell>
        <mxCell id="nEFb0NRuYZ_jhTo4WBhV-99" value="&lt;div style=&quot;text-align: left;&quot;&gt;&lt;span style=&quot;background-color: initial;&quot;&gt;Output:&amp;nbsp;&lt;/span&gt;&lt;/div&gt;&lt;div style=&quot;text-align: left;&quot;&gt;&lt;span style=&quot;background-color: initial;&quot;&gt;Array(Task Code, Account Name, Carrier, EE name)&lt;/span&gt;&lt;/div&gt;&lt;div style=&quot;text-align: left;&quot;&gt;&lt;span style=&quot;background-color: initial;&quot;&gt;OR&lt;/span&gt;&lt;/div&gt;&lt;div style=&quot;border-color: var(--border-color); text-align: left;&quot;&gt;Array(&quot;Invalid format&quot;, &quot;&quot;, &quot;&quot;)&lt;/div&gt;" style="whiteSpace=wrap;html=1;rounded=1;" vertex="1" parent="WIyWlLk6GJQsqaUBKTNV-1">
          <mxGeometry x="2200" y="368" width="290" height="60" as="geometry" />
        </mxCell>
      </root>
    </mxGraphModel>
  </diagram>
</mxfile>
